<?xml version="1.0" standalone="no"?>
<!DOCTYPE svg PUBLIC "-//W3C//DTD SVG 1.1//EN" "http://www.w3.org/Graphics/SVG/1.1/DTD/svg11.dtd">
<svg xmlns="http://www.w3.org/2000/svg" id="Layer_1" version="1.1" viewBox="0 0 150 32.9" width="150" height="32.900001525878906">
  <!-- Generator: Adobe Illustrator 29.4.0, SVG Export Plug-In . SVG Version: 2.1.0 Build 152)  -->
  <defs>
    <style>
      .st0 {
        fill: #00249c;
      }
    </style>
  </defs>
  <g>
    <rect class="st0" x="127.1" y="23.4" width="18.1" height="4"/>
    <path class="st0" d="M131.1,19.1c0-7.5,4.5-10.5,10.2-12.5.7-.2,1.4-.5,2.1-.7,0,0-.2,0-.3,0-1.1-.8-2.2-1.4-4.6-2.4-5.5,2.2-11.4,6.3-11.4,15.7v3.7h4v-3.7Z"/>
    <path class="st0" d="M144.1,6.4c-1.1.3-3.2,1-4.8,1.6.6.3,1.1.6,1.6,1,3.4,2.3,5.1,5.6,5.1,10.1v8.3h4v-8.3c-.1-5.4-2-9.6-5.9-12.7"/>
  </g>
  <g>
    <path class="st0" d="M72.5,9.1v5.2c0,.5-.2.7-.7.7h-1.6c.2-.4.3-.9.3-1.4v-1.3h-1.4v1.4c0,.7-.5,1.3-1.1,1.3h-2.4c.2-.4.4-.9.4-1.5,0-1.9-1.4-2.9-2.7-2.9s-2.7,1-2.7,2.9,0,1.1.4,1.5h-2.8c.2-.4.3-.9.3-1.4v-1.3h-1.4v1.4c0,.8-.5,1.3-1.2,1.3h-1.7c.2-.4.3-.9.3-1.4v-1.3h-1.4v1.4c0,.8-.5,1.3-1.2,1.3h-8.9v-1.5c0-1.8-1.3-2.9-2.7-2.9s-2.7,1-2.7,2.9,1.3,2.9,2.7,2.9h31.4c1.3,0,2.1-.8,2.1-2.1v-5.8l-1.3.6ZM63.2,11.9c.6,0,1.3.6,1.3,1.6s-.7,1.6-1.3,1.6-1.3-.6-1.3-1.6c0-1,.6-1.6,1.3-1.6M41.6,15.1h-1.3c-.6,0-1.3-.6-1.3-1.6s.7-1.5,1.3-1.6c.6,0,1.3.6,1.3,1.6v1.6Z"/>
    <polygon class="st0" points="75.3 16.4 76.7 16.4 76.7 8.5 75.3 9.1 75.3 16.4"/>
    <path class="st0" d="M116,11.8h-2.9v-.8c0-.7.4-1.2,1.1-1.2h1.2l.6-1.4h-1.8c-1.5,0-2.4,1.1-2.4,2.6v2h4.4c.7,0,1.2.5,1.2,1.2v.7h-7.8c.1-.2.1-.5.1-.7v-5.7l-1.4.6v5.2c0,.5-.2.7-.7.7h-1.6c.2-.4.3-.9.3-1.4v-1.3h-1.4v1.4c0,.7-.5,1.3-1.1,1.3h-11.8v-6.5h-1.4v7.9h28.1v-2.2c-.1-1.4-1.2-2.4-2.7-2.4"/>
    <path class="st0" d="M88,14.3c0,.5-.2.7-.7.7h-5.8l-.8,1.4h6.6c1.3,0,2.1-.8,2.1-2.1v-1.9h-1.4s0,1.9,0,1.9Z"/>
    <path class="st0" d="M83.9,12.1c.4,0,.6-.3.6-.6s-.3-.6-.6-.6-.6.3-.6.6.3.6.6.6"/>
    <path class="st0" d="M85.5,12.1c.4,0,.6-.3.6-.6s-.3-.6-.6-.6-.6.3-.6.6.3.6.6.6"/>
    <path class="st0" d="M67.5,11.4c.4,0,.6-.3.6-.6s-.3-.6-.6-.6-.6.3-.6.6.2.6.6.6"/>
    <path class="st0" d="M69.1,11.4c.4,0,.6-.3.6-.6s-.3-.6-.6-.6-.6.3-.6.6.3.6.6.6"/>
    <path class="st0" d="M29.8,9.1v5.2c0,.5-.2.7-.7.7h-1.9c.3-.5.5-1.2.5-1.9,0-1.8-1.1-2.5-2.4-2.5h-3.9l.9,1.3v1.6c0,.6,0,1.1.4,1.5h-3.3c0-.2,0-.5,0-.7v-5.8l-1.4.6v5.2c0,.5-.2.7-.7.7h-1.5c.2-.4.3-.9.3-1.4v-1.3h-1.4v1.4c0,.7-.5,1.3-1.1,1.3H1.4v-6.5H0v7.9h28.9c1.3,0,2.1-.8,2.1-2.1v-5.8l-1.2.6ZM23.8,13.5v-1.5h1.6c.6,0,1,.2,1,1.2s-.5,1.9-1.3,1.9c-.7,0-1.3-.6-1.3-1.6"/>
    <polygon class="st0" points="32.6 16.4 34 16.4 34 8.5 32.6 9.1 32.6 16.4"/>
    <path class="st0" d="M13.4,17.4c-.4,0-.6.3-.6.6s.3.6.6.6.6-.3.6-.6c0-.3-.3-.6-.6-.6"/>
    <path class="st0" d="M15,17.4c-.4,0-.6.3-.6.6s.3.6.6.6.6-.3.6-.6-.2-.6-.6-.6"/>
    <path class="st0" d="M39.4,9.8c.4,0,.6-.3.6-.6s-.3-.6-.6-.6-.6.3-.6.6c-.1.3.2.6.6.6"/>
    <path class="st0" d="M41,9.8c.4,0,.6-.3.6-.6s-.3-.6-.6-.6-.6.3-.6.6c-.1.3.2.6.6.6"/>
    <path class="st0" d="M62.5,9.8c.4,0,.6-.3.6-.6s-.3-.6-.6-.6-.6.3-.6.6c-.1.3.2.6.6.6"/>
    <path class="st0" d="M64.1,9.8c.4,0,.6-.3.6-.6s-.3-.6-.6-.6-.6.3-.6.6c0,.3.2.6.6.6"/>
    <path class="st0" d="M57.1,11.4c.4,0,.6-.3.6-.6s-.3-.6-.6-.6-.6.3-.6.6c0,.3.2.6.6.6"/>
    <g>
      <g>
        <polygon class="st0" points="3.8 23.9 1.2 23.9 1.2 21.5 .1 21.5 .1 27.4 1.2 27.4 1.2 24.9 3.8 24.9 3.8 27.4 4.9 27.4 4.9 21.5 3.8 21.5 3.8 23.9"/>
        <rect class="st0" x="6" y="23.3" width="1" height="4.1"/>
        <path class="st0" d="M6.5,21.7c-.3,0-.6.3-.6.6s.3.6.6.6.6-.3.6-.6-.3-.6-.6-.6"/>
        <path class="st0" d="M15.3,23.1c-.4,0-.8.2-1.1.4v-2h-1v4h0v1.9h1v-2.3c0-.4.4-1,.9-1s.8.4.8,1v2.3h1v-2.2c0-1.2-.4-2.1-1.6-2.1"/>
        <path class="st0" d="M19.9,23.1c-1,0-2.1.8-2.1,2.2s1,2.2,2.2,2.2,1.1-.2,1.6-.6l-.5-.6c-.3.2-.6.4-1,.4-.6,0-1.1-.4-1.2-1h3.1v-.4c0-1.4-1-2.2-2.1-2.2M18.9,24.9c0-.6.5-.9,1-.9s1,.4,1,.9h-2Z"/>
        <path class="st0" d="M22.9,24.8v2.6h1v-2.4c0-.5.3-.7.7-.7h.4v-1h-.6c-.8,0-1.5.4-1.5,1.5"/>
        <path class="st0" d="M11,23.3h-1c-1,0-2,.8-2,2.2s1,2.2,2,2.2.7-.1.9-.2c0,.7-.7,1.1-1.4,1.1s-.8-.1-1.1-.2l-.2.9c.4.1.9.2,1.3.2,1.4,0,2.5-.9,2.5-2.6v-3.5h-1ZM10,26.6c-.5,0-1-.4-1-1.2s.5-1.2,1-1.2h1v1.4c0,.7-.4,1-1,1"/>
      </g>
      <g>
        <path class="st0" d="M31.1,22.3c.5,0,1.1.1,1.6.4l.3-1c-.7-.3-1.3-.5-2-.5-1.6,0-3,1.2-3,3.1s1.4,3.1,3,3.1,1.3-.1,2-.5l-.3-1c-.5.3-1.1.4-1.6.4-1.1,0-2.1-.8-2.1-2.1s1-1.9,2.1-1.9"/>
        <path class="st0" d="M35.5,23.1c-1,0-2.1.8-2.1,2.2s1,2.2,2.1,2.2,2.1-.8,2.1-2.2-1.1-2.2-2.1-2.2M35.5,26.5c-.5,0-1-.4-1-1.2s.5-1.2,1-1.2,1,.4,1,1.2c0,.8-.5,1.2-1,1.2"/>
        <path class="st0" d="M39.5,25.8v-4l-1-.3v4.3c0,1,.6,1.6,1.6,1.6h.2v-1h-.2c-.4,0-.6-.2-.6-.6"/>
        <path class="st0" d="M41.9,25.8v-4l-1-.3v4.3c0,1,.6,1.6,1.6,1.6h0v-1h-.2c-.4,0-.5-.2-.5-.6"/>
        <path class="st0" d="M45.2,23.1c-1,0-2.1.8-2.1,2.2s1,2.2,2.2,2.2,1.1-.2,1.6-.6l-.5-.6c-.3.2-.6.4-1,.4-.6,0-1.1-.4-1.2-1h3.1v-.4c0-1.4-1-2.2-2.1-2.2M44.2,24.9c0-.6.5-.9,1-.9s1,.4,1,.9h-2Z"/>
        <path class="st0" d="M51,23.3h-1c-1,0-2,.8-2,2.2s1,2.2,2,2.2.7-.1.9-.2c0,.7-.7,1.1-1.4,1.1s-.8-.1-1.1-.2l-.2.9c.4.1.9.2,1.3.2,1.4,0,2.5-.9,2.5-2.6v-3.5h-1ZM50,26.6c-.5,0-1-.4-1-1.2s.5-1.2,1-1.2h1v1.4c0,.7-.3,1-1,1"/>
        <path class="st0" d="M55,23.1c-1,0-2.1.8-2.1,2.2s1,2.2,2.2,2.2,1.1-.2,1.6-.6l-.5-.6c-.3.2-.6.4-1,.4-.6,0-1.1-.4-1.2-1h3.1v-.4c0-1.4-1-2.2-2.1-2.2M54,24.9c0-.6.5-.9,1-.9s1,.4,1,.9h-2Z"/>
        <path class="st0" d="M58.9,24.3c0-.2.3-.4.8-.4s.9.1,1.3.2l.3-.8c-.4-.2-1-.3-1.5-.3-1.1,0-1.8.5-1.8,1.3,0,1.5,2.5,1.2,2.5,1.9s-.4.5-.9.5-1.2-.1-1.5-.3l-.3.8c.5.3,1.2.4,1.7.4h0c1.2,0,1.9-.6,1.9-1.4,0-1.5-2.5-1.2-2.5-1.9"/>
      </g>
      <g>
        <path class="st0" d="M66.2,23.1c-1,0-2.1.8-2.1,2.2s1,2.2,2.1,2.2,2.1-.8,2.1-2.2c0-1.4-1.1-2.2-2.1-2.2M66.2,26.5c-.5,0-1-.4-1-1.2s.5-1.2,1-1.2,1,.4,1,1.2-.5,1.2-1,1.2"/>
        <path class="st0" d="M69.2,22.7v4.7h1v-3.2h.9l.3-1h-1.2v-.6c0-.5.3-.9.8-.9h.4v-1h-.4c-1.1,0-1.8.8-1.8,2"/>
      </g>
      <g>
        <polygon class="st0" points="76 21.5 74.2 21.5 74.2 22.5 76 22.5 76 27.4 77.1 27.4 77.1 22.5 78.9 22.5 78.9 21.5 77.1 21.5 76 21.5"/>
        <path class="st0" d="M80.3,23.1c-1,0-2.1.8-2.1,2.2h0c0,1.4,1,2.2,2.2,2.2s1.1-.2,1.6-.6l-.5-.6c-.3.2-.6.4-1,.4-.6,0-1.1-.4-1.2-1h3.1v-.4c0-1.4-1-2.2-2.1-2.2M79.3,24.9c0-.6.5-.9,1-.9s1,.4,1,.9h-2Z"/>
        <path class="st0" d="M85.4,24.1c.3,0,.7.1,1,.3l.4-.9c-.5-.3-1-.4-1.5-.4-1.1,0-2.2.8-2.2,2.2s1.1,2.2,2.2,2.2,1-.1,1.5-.4l-.4-.9c-.3.2-.7.3-1,.3-.7,0-1.3-.5-1.3-1.2,0-.7.6-1.2,1.3-1.2"/>
        <path class="st0" d="M89.8,23.1c-.4,0-.8.2-1.1.4v-2h-1v5.9h1v-2.3c0-.4.4-1,.9-1s.8.4.8,1v2.3h1v-2.2c0-1.2-.4-2.1-1.6-2.1"/>
        <path class="st0" d="M94.5,23.1c-1.1,0-1.9.9-1.9,2.1v2.2h1v-2.3c0-.6.4-1,.9-1s.9.4.9,1v2.3h1v-2.2c0-1.2-.8-2.1-1.9-2.1"/>
        <path class="st0" d="M99.4,23.1c-1,0-2.1.8-2.1,2.2s1,2.2,2.1,2.2,2.1-.8,2.1-2.2c-.1-1.4-1.1-2.2-2.1-2.2M99.4,26.5c-.5,0-1-.4-1-1.2s.5-1.2,1-1.2,1,.4,1,1.2-.5,1.2-1,1.2"/>
        <path class="st0" d="M103.4,25.8v-4l-1-.3v4.3c0,1,.6,1.6,1.6,1.6h.2v-1h-.2c-.4,0-.6-.2-.6-.6"/>
        <path class="st0" d="M106.7,23.1c-1,0-2.1.8-2.1,2.2s1,2.2,2.1,2.2,2.1-.8,2.1-2.2c0-1.4-1.1-2.2-2.1-2.2M106.7,26.5c-.5,0-1-.4-1-1.2s.5-1.2,1-1.2,1,.4,1,1.2c0,.8-.5,1.2-1,1.2"/>
        <path class="st0" d="M112.6,23.3h-1c-1,0-2,.8-2,2.2s1,2.2,2,2.2.7-.1.9-.2c0,.7-.7,1.1-1.4,1.1s-.8-.1-1.1-.2l-.2.9c.4.1.9.2,1.3.2,1.4,0,2.5-.9,2.5-2.6v-3.5h-1ZM111.6,26.6c-.5,0-1-.4-1-1.2s.5-1.2,1-1.2h1v1.4c0,.7-.4,1-1,1"/>
        <polygon class="st0" points="117.5 23.3 116.4 26.1 115.4 23.3 114.3 23.3 115.9 27.4 115.3 29.2 116.3 29.2 118.6 23.3 117.5 23.3"/>
      </g>
    </g>
    <path class="st0" d="M51.5,17.4c-.4,0-.6.3-.6.6s.3.6.6.6.6-.3.6-.6c0-.3-.2-.6-.6-.6"/>
    <path class="st0" d="M53.1,17.4c-.4,0-.6.3-.6.6s.3.6.6.6.6-.3.6-.6c0-.3-.2-.6-.6-.6"/>
    <path class="st0" d="M103.4,17.4c-.4,0-.6.3-.6.6s.3.6.6.6.6-.3.6-.6c0-.3-.2-.6-.6-.6"/>
    <path class="st0" d="M105,17.4c-.4,0-.6.3-.6.6s.3.6.6.6.6-.3.6-.6c.1-.3-.2-.6-.6-.6"/>
  </g>
</svg>